<svg xmlns="http://www.w3.org/2000/svg" viewBox="0 0 420 92" role="img" aria-label="Buy me a coffee">
  <defs>
    <linearGradient id="bg" x1="0" x2="1" y1="0" y2="1">
      <stop offset="0" stop-color="#182833"/>
      <stop offset="1" stop-color="#0e1620"/>
    </linearGradient>
    <filter id="soft" x="-20%" y="-20%" width="140%" height="140%">
      <feGaussianBlur stdDeviation="1.2" result="blur"/>
      <feMerge>
        <feMergeNode in="blur"/>
        <feMergeNode in="SourceGraphic"/>
      </feMerge>
    </filter>
  </defs>
  <rect x="1" y="1" width="418" height="90" rx="18" fill="url(#bg)" stroke="#29404f" stroke-width="2"/>
  <g transform="translate(18 14)">
    <circle cx="32" cy="32" r="28" fill="#121d26" stroke="#355264" stroke-width="2"/>
    <path d="M23 26h18c5 0 9 4 9 9v4c0 5-4 9-9 9H23z" fill="#e9bf52"/>
    <path d="M50 30h5c4 0 7 3 7 7s-3 7-7 7h-4" fill="none" stroke="#e9bf52" stroke-width="4" stroke-linecap="round"/>
    <path d="M27 21c0 4 3 5 3 8s-3 4-3 8" fill="none" stroke="#ffffff" stroke-opacity=".22" stroke-width="2" stroke-linecap="round"/>
    <path d="M36 21c0 4 3 5 3 8s-3 4-3 8" fill="none" stroke="#ffffff" stroke-opacity=".22" stroke-width="2" stroke-linecap="round"/>
    <path d="M45 21c0 4 3 5 3 8s-3 4-3 8" fill="none" stroke="#ffffff" stroke-opacity=".22" stroke-width="2" stroke-linecap="round"/>
    <circle cx="32" cy="33" r="3" fill="#0c141b" filter="url(#soft)"/>
  </g>
  <text x="98" y="41" fill="#f4f8fb" font-family="ui-sans-serif, system-ui, -apple-system, BlinkMacSystemFont, Segoe UI, sans-serif" font-size="24" font-weight="800">Buy me a coffee</text>
  <text x="98" y="63" fill="#9eb0bc" font-family="ui-sans-serif, system-ui, -apple-system, BlinkMacSystemFont, Segoe UI, sans-serif" font-size="13" font-weight="600">Support Season Clock Card development</text>
</svg>
